/* XPM */
static char *_08916a387ee4cdcda33b49f4b357e7a[] = {
/* columns rows colors chars-per-pixel */
"32 32 62 1 ",
"  c #03B52E",
". c #03B52F",
"X c #03B62E",
"o c #03B72E",
"O c #03B62F",
"+ c #03B72F",
"@ c #04B62E",
"# c #04B72E",
"$ c #04B62F",
"% c #04B72F",
"& c #03B82E",
"* c #03B443",
"= c #77976C",
"- c #D7850D",
"; c #D6850E",
": c #D7850E",
"> c #D7850F",
", c #D7860E",
"< c #D7860F",
"1 c #D8850E",
"2 c #D8850F",
"3 c #D8860E",
"4 c #D8860F",
"5 c #CE8718",
"6 c #F09C13",
"7 c #F09C14",
"8 c #F19C15",
"9 c #F19D1A",
"0 c #C38922",
"q c #F4A322",
"w c #F3A528",
"e c #F2A72D",
"r c #F1AB3B",
"t c #F3AE3E",
"y c #F4AE3E",
"u c #F4B044",
"i c #F4B145",
"p c #F4B44B",
"a c #F5B44B",
"s c #F2B450",
"d c #F6BB5B",
"f c #F6BB5C",
"g c #F6BB5D",
"h c #F5BD61",
"j c #F6BD62",
"k c #F6C069",
"l c #F6C06A",
"z c #F6C471",
"x c #F8C371",
"c c #01B088",
"v c #36A1AB",
"b c #00ABD2",
"n c #05A8D9",
"m c #00AADD",
"M c #01AADD",
"N c #01ABDD",
"B c #01AADE",
"V c #00AADF",
"C c #00ABDF",
"Z c #00AAE0",
"A c #00ABE0",
"S c None",
/* pixels */
"SSSSSSSSSSSSSSSSSSSSSSSSSSSSSSSS",
"SSSSSSSSSSSSSSSSSSSSSSSSSSSSSSSS",
"SSSSSSSSSSSSSSSSSSSSSSSSSSSSSSSS",
"SSSSSSSSSSSSSSSSSSSSSSSSSSSSSSSS",
"SSSSSSSSSSSSS444SSSSSSSSSSSSSSSS",
"SSSSSSSSSSSS>444>SSSSSSSSSSSSSSS",
"SSSSSSSSSSS4>444SSSSSSSSSSSSSSSS",
"SSSSSSSSSS>4444SSSSSSSSSSSSSSSSS",
"SSSSSSSSS>44444SS44SSSSSSSSSSSSS",
"SSSSSSSS>4444444444>SSSSSSSSSSSS",
"SSSSSSSA54>>44444444SSSSSSSSSSSS",
"SSSSSSAAC>=CC44444>SSSSSSSSSSSSS",
"SSSSSAAACnCAC4444>SSSSSSSSSSSSSS",
"SSSSCAAACCCv0444>44SSSSSSSSSSSSS",
"SSSCAAAACACS4444S44>SSSSSSSSSSSS",
"SCAAAAAAAAAAS44SSSSSSSSSSSSSSSSS",
"SCAAAAAACCAACSSSS7SSSeSyuasShkzS",
"SSAAAAAAbcCAAS%SS7SSSeSSSSSfSSSS",
"SSSCAAACX%*CS%%XS7SSSeSSSSSfSSSS",
"SSSSAAAAS%%S%%%%S79SSeSrSSSfSSSS",
"SSSSSAAACSX%%%%SSSSqwSStuaSShkxS",
"SSSSSSCCSX%%%%%SSSXSSSSSSSSSSSSS",
"SSSSSSSS%%%%%%%X&%%SSSSSSSSSSSSS",
"SSSSSSSS%%%%%%%%%%%%SSSSSSSSSSSS",
"SSSSSSSSS%%%%%%%%%XSSSSSSSSSSSSS",
"SSSSSSSSSS%%%%%%%%SSSSSSSSSSSSSS",
"SSSSSSSSSSS%%%%%%%+SSSSSSSSSSSSS",
"SSSSSSSSSSSS%%%SS%%SSSSSSSSSSSSS",
"SSSSSSSSSSSSX%.SSXXSSSSSSSSSSSSS",
"SSSSSSSSSSSSSSSSSSSSSSSSSSSSSSSS",
"SSSSSSSSSSSSSSSSSSSSSSSSSSSSSSSS",
"SSSSSSSSSSSSSSSSSSSSSSSSSSSSSSSS"
};
