/* XPM */
static char *_7ac383a125d42bdfdbbb59392a8e629[] = {
/* columns rows colors chars-per-pixel */
"16 16 33 1 ",
"  c #03B62E",
". c #03B72E",
"X c #03B72F",
"o c #04B62E",
"O c #04B72E",
"+ c #04B62F",
"@ c #04B72F",
"# c #03B631",
"$ c #03B533",
"% c #02B265",
"& c #B3A31B",
"* c #BD8A28",
"= c #A78E3E",
"- c #A88E3C",
"; c #B38B31",
": c #D7850E",
"> c #D7850F",
", c #D7860E",
"< c #D8850E",
"1 c #D8850F",
"2 c #D9850F",
"3 c #D8860F",
"4 c #85935F",
"5 c #01AFAB",
"6 c #03ACC2",
"7 c #00ACCE",
"8 c #09AAD6",
"9 c #07A9D9",
"0 c #00ABDF",
"q c #01ABDF",
"w c #00AAE0",
"e c #00ABE0",
"r c None",
/* pixels */
"rrrrrrrrrrrrrrrr",
"rrrrrrrrrrrrrrrr",
"rrrrrr>,rrrrrrrr",
"rrrrr,33rrrrrrrr",
"rrrr<<3,<<rrrrrr",
"rrrw-4;333rrrrrr",
"rrwee8-3>rrrrrrr",
"r0wee9*3r>rrrrrr",
"r0ew706rrrrrrrrr",
"rre0#%#@&rrrrrrr",
"rrrw5@@rrrrrrrrr",
"rrrr@@@@XXrrrrrr",
"rrrrr@@@@rrrrrrr",
"rrrrrr@XXrrrrrrr",
"rrrrrrrrrrrrrrrr",
"rrrrrrrrrrrrrrrr"
};
