/* XPM */
static char *cc81b498d567493dcae8c3e6a9b010c8[] = {
/* columns rows colors chars-per-pixel */
"64 64 107 2 ",
"   c #03B52D",
".  c #03B62D",
"X  c #03B52E",
"o  c #03B62E",
"O  c #03B72E",
"+  c #03B62F",
"@  c #03B72F",
"#  c #04B62E",
"$  c #04B72E",
"%  c #04B62F",
"&  c #04B72F",
"*  c #D7840D",
"=  c #D6850D",
"-  c #D7850D",
";  c #D6850E",
":  c #D7850E",
">  c #D6850F",
",  c #D7850F",
"<  c #D7860E",
"1  c #D7860F",
"2  c #D8850D",
"3  c #D8850E",
"4  c #D9850E",
"5  c #D8850F",
"6  c #D8860E",
"7  c #D8860F",
"8  c #EE9914",
"9  c #EE9B14",
"0  c #EF9C15",
"q  c #EE9E1B",
"w  c #EF9E1E",
"e  c #F19C13",
"r  c #F29C12",
"t  c #F29C13",
"y  c #F39C13",
"u  c #F29D16",
"i  c #F19E19",
"p  c #F29F19",
"a  c #F3A01C",
"s  c #EF9F21",
"d  c #EFA125",
"f  c #F4A220",
"g  c #F4A323",
"h  c #F4A527",
"j  c #F1A42A",
"k  c #F4A62A",
"l  c #F3A82D",
"z  c #F4A82E",
"x  c #EFAB3E",
"c  c #F1AB3A",
"v  c #F0AA3B",
"b  c #F2AB3B",
"n  c #F5AB39",
"m  c #F3AC3B",
"M  c #F4AC38",
"N  c #F5AC38",
"B  c #F3AD3C",
"V  c #F3AD3E",
"C  c #F4AD3C",
"Z  c #EFAD41",
"A  c #F2AF42",
"S  c #F5AF40",
"D  c #F1AF45",
"F  c #F1AF49",
"G  c #F5B143",
"H  c #F4B046",
"J  c #F6B247",
"K  c #F1B14B",
"L  c #F4B249",
"P  c #F6B44B",
"I  c #F1B34F",
"U  c #F4B34C",
"Y  c #F6B64E",
"T  c #F4B551",
"R  c #F6B752",
"E  c #F2BA5E",
"W  c #F5BB5C",
"Q  c #F6BB5D",
"!  c #F4BB5F",
"~  c #F7BC5D",
"^  c #F1BB61",
"/  c #F6BD60",
"(  c #F6BD61",
")  c #F4BD63",
"_  c #F1BD65",
"`  c #F7BF65",
"'  c #F1BD69",
"]  c #F4BF68",
"[  c #F3BF6D",
"{  c #F7C169",
"}  c #F4C16B",
"|  c #F7C26C",
" . c #F5C26F",
".. c #F3C171",
"X. c #F5C472",
"o. c #F3C375",
"O. c #F5C577",
"+. c #F8C470",
"@. c #F8C574",
"#. c #F8C778",
"$. c #00AADE",
"%. c #00ABDE",
"&. c #00AADF",
"*. c #00ABDF",
"=. c #00AAE0",
"-. c #00ABE0",
";. c None",
/* pixels */
";.;.;.;.;.;.;.;.;.;.;.;.;.;.;.;.;.;.;.;.;.;.;.;.;.;.;.;.;.;.;.;.;.;.;.;.;.;.;.;.;.;.;.;.;.;.;.;.;.;.;.;.;.;.;.;.;.;.;.;.;.;.;.;.",
";.;.;.;.;.;.;.;.;.;.;.;.;.;.;.;.;.;.;.;.;.;.;.;.;.;.;.;.;.;.;.;.;.;.;.;.;.;.;.;.;.;.;.;.;.;.;.;.;.;.;.;.;.;.;.;.;.;.;.;.;.;.;.;.",
";.;.;.;.;.;.;.;.;.;.;.;.;.;.;.;.;.;.;.;.;.;.;.;.;.;.;.;.;.;.;.;.;.;.;.;.;.;.;.;.;.;.;.;.;.;.;.;.;.;.;.;.;.;.;.;.;.;.;.;.;.;.;.;.",
";.;.;.;.;.;.;.;.;.;.;.;.;.;.;.;.;.;.;.;.;.;.;.;.;.;.;.;.;.;.;.;.;.;.;.;.;.;.;.;.;.;.;.;.;.;.;.;.;.;.;.;.;.;.;.;.;.;.;.;.;.;.;.;.",
";.;.;.;.;.;.;.;.;.;.;.;.;.;.;.;.;.;.;.;.;.;.;.;.;.;.;.;.;.;.;.;.;.;.;.;.;.;.;.;.;.;.;.;.;.;.;.;.;.;.;.;.;.;.;.;.;.;.;.;.;.;.;.;.",
";.;.;.;.;.;.;.;.;.;.;.;.;.;.;.;.;.;.;.;.;.;.;.;.;.;.;.;.;.;.;.;.;.;.;.;.;.;.;.;.;.;.;.;.;.;.;.;.;.;.;.;.;.;.;.;.;.;.;.;.;.;.;.;.",
";.;.;.;.;.;.;.;.;.;.;.;.;.;.;.;.;.;.;.;.;.;.;.;.;.;.;.;.;.;.;.;.;.;.;.;.;.;.;.;.;.;.;.;.;.;.;.;.;.;.;.;.;.;.;.;.;.;.;.;.;.;.;.;.",
";.;.;.;.;.;.;.;.;.;.;.;.;.;.;.;.;.;.;.;.;.;.;.;.;.;.;.;.1 7 ;.;.;.;.;.;.;.;.;.;.;.;.;.;.;.;.;.;.;.;.;.;.;.;.;.;.;.;.;.;.;.;.;.;.",
";.;.;.;.;.;.;.;.;.;.;.;.;.;.;.;.;.;.;.;.;.;.;.;.;.;.;.1 7 7 7 ;.;.;.;.;.;.;.;.;.;.;.;.;.;.;.;.;.;.;.;.;.;.;.;.;.;.;.;.;.;.;.;.;.",
";.;.;.;.;.;.;.;.;.;.;.;.;.;.;.;.;.;.;.;.;.;.;.;.;.;.1 7 7 7 7 1 ;.;.;.;.;.;.;.;.;.;.;.;.;.;.;.;.;.;.;.;.;.;.;.;.;.;.;.;.;.;.;.;.",
";.;.;.;.;.;.;.;.;.;.;.;.;.;.;.;.;.;.;.;.;.;.;.;.;.7 7 7 7 7 7 7 1 ;.;.;.;.;.;.;.;.;.;.;.;.;.;.;.;.;.;.;.;.;.;.;.;.;.;.;.;.;.;.;.",
";.;.;.;.;.;.;.;.;.;.;.;.;.;.;.;.;.;.;.;.;.;.;.;.7 7 7 7 7 7 7 7 7 1 ;.;.;.;.;.;.;.;.;.;.;.;.;.;.;.;.;.;.;.;.;.;.;.;.;.;.;.;.;.;.",
";.;.;.;.;.;.;.;.;.;.;.;.;.;.;.;.;.;.;.;.;.;.;.1 7 7 7 7 7 7 7 1 ;.;.;.;.;.;.;.;.;.;.;.;.;.;.;.;.;.;.;.;.;.;.;.;.;.;.;.;.;.;.;.;.",
";.;.;.;.;.;.;.;.;.;.;.;.;.;.;.;.;.;.;.;.;.;.7 7 7 7 7 7 7 7 1 ;.;.;.;.;.;.;.;.;.;.;.;.;.;.;.;.;.;.;.;.;.;.;.;.;.;.;.;.;.;.;.;.;.",
";.;.;.;.;.;.;.;.;.;.;.;.;.;.;.;.;.;.;.;.;.1 7 7 7 7 7 7 7 7 ;.;.;.;.;.;.;.;.;.;.;.;.;.;.;.;.;.;.;.;.;.;.;.;.;.;.;.;.;.;.;.;.;.;.",
";.;.;.;.;.;.;.;.;.;.;.;.;.;.;.;.;.;.;.;.1 7 7 7 7 7 7 7 7 7 ;.;.;.;.;.;.7 1 ;.;.;.;.;.;.;.;.;.;.;.;.;.;.;.;.;.;.;.;.;.;.;.;.;.;.",
";.;.;.;.;.;.;.;.;.;.;.;.;.;.;.;.;.;.;.1 7 7 7 7 7 7 7 7 7 7 ;.;.;.;.;.7 7 1 ;.;.;.;.;.;.;.;.;.;.;.;.;.;.;.;.;.;.;.;.;.;.;.;.;.;.",
";.;.;.;.;.;.;.;.;.;.;.;.;.;.;.;.;.;.1 7 7 7 7 7 7 7 7 7 7 7 7 ;.;.;.1 7 7 7 7 ;.;.;.;.;.;.;.;.;.;.;.;.;.;.;.;.;.;.;.;.;.;.;.;.;.",
";.;.;.;.;.;.;.;.;.;.;.;.;.;.;.;.;.1 7 7 7 7 7 7 7 7 7 7 7 7 7 7 7 7 7 7 7 7 7 1 ;.;.;.;.;.;.;.;.;.;.;.;.;.;.;.;.;.;.;.;.;.;.;.;.",
";.;.;.;.;.;.;.;.;.;.;.;.;.;.;.;.7 7 7 7 7 7 7 7 7 7 7 7 7 7 7 7 7 7 7 7 7 7 7 7 1 ;.;.;.;.;.;.;.;.;.;.;.;.;.;.;.;.;.;.;.;.;.;.;.",
";.;.;.;.;.;.;.;.;.;.;.;.;.;.&.;.;.7 7 7 7 7 7 7 7 7 7 7 7 7 7 7 7 7 7 7 7 7 7 7 1 ;.;.;.;.;.;.;.;.;.;.;.;.;.;.;.;.;.;.;.;.;.;.;.",
";.;.;.;.;.;.;.;.;.;.;.;.;.&.-.-.;.7 7 7 7 7 ;.;.;.1 7 7 7 7 7 7 7 7 7 7 7 7 1 ;.;.;.;.;.;.;.;.;.;.;.;.;.;.;.;.;.;.;.;.;.;.;.;.;.",
";.;.;.;.;.;.;.;.;.;.;.;.-.-.-.-.&.;.7 7 1 ;.&.&.&.;.1 7 7 7 7 7 7 7 7 7 7 1 ;.;.;.;.;.;.;.;.;.;.;.;.;.;.;.;.;.;.;.;.;.;.;.;.;.;.",
";.;.;.;.;.;.;.;.;.;.;.&.-.-.-.-.*.&.;.7 ;.&.-.&.&.;.* 7 7 7 7 7 7 7 7 7 1 ;.;.;.;.;.;.;.;.;.;.;.;.;.;.;.;.;.;.;.;.;.;.;.;.;.;.;.",
";.;.;.;.;.;.;.;.;.;.&.-.-.-.-.-.-.&.;.;.;.-.-.-.-.-.7 7 7 7 7 7 7 7 7 1 ;.;.;.;.;.;.;.;.;.;.;.;.;.;.;.;.;.;.;.;.;.;.;.;.;.;.;.;.",
";.;.;.;.;.;.;.;.;.-.-.-.-.-.-.-.-.-.-.&.*.-.-.-.-.;.1 7 7 7 7 7 7 7 7 7 ;.;.;.;.;.;.;.;.;.;.;.;.;.;.;.;.;.;.;.;.;.;.;.;.;.;.;.;.",
";.;.;.;.;.;.;.;.-.-.-.-.-.-.-.-.-.-.-.-.-.-.*.&.;.* 7 7 7 7 7 7 7 7 7 7 7 1 ;.;.;.;.;.;.;.;.;.;.;.;.;.;.;.;.;.;.;.;.;.;.;.;.;.;.",
";.;.;.;.;.;.;.&.-.-.-.-.-.-.-.-.-.-.-.-.-.-.;.1 7 7 7 7 7 7 7 7 7 ;.7 7 7 7 1 ;.;.;.;.;.;.;.;.;.;.;.;.;.;.;.;.;.;.;.;.;.;.;.;.;.",
";.;.;.;.;.;.-.-.-.-.-.-.-.-.-.-.-.-.-.-.-.&.;.;.7 7 7 7 7 7 7 7 ;.;.7 7 7 7 1 ;.;.;.;.;.;.;.;.;.;.;.;.;.;.;.;.;.;.;.;.;.;.;.;.;.",
";.;.;.;.;.-.-.-.-.-.-.-.-.-.-.-.-.-.-.-.-.-.&.;.;.7 7 7 7 7 1 ;.;.;.1 7 7 7 1 ;.;.;.;.;.;.;.;.;.;.;.;.;.;.;.;.;.;.;.;.;.;.;.;.;.",
";.;.;.;.&.-.-.-.-.-.-.-.-.-.-.-.-.-.-.-.-.-.-.-.;.;.1 7 7 1 ;.;.;.;.;.7 7 1 ;.;.;.;.;.;.;.;.;.;.;.;.;.;.;.;.;.;.;.;.;.;.;.;.;.;.",
";.;.&.-.-.-.-.-.-.-.-.-.-.-.-.-.-.-.-.-.-.-.-.-.-.;.;.1 7 ;.;.;.;.;.;.;.;.;.;.;.;.;.;.;.;.;.;.;.;.;.;.;.;.;.;.;.;.;.;.;.;.;.;.;.",
";.;.-.-.-.-.-.-.-.-.-.-.-.-.-.-.-.-.-.-.-.-.-.-.-.&.;.;.;.;.;.;.;.;.y 8 ;.;.;.;.;.;.z ;.;.;.C S G J P Y T ;.;.;.( { } | +.@.#.;.",
";.;.;.*.-.-.-.-.-.-.-.-.-.-.-.-.-.-.-.-.-.-.-.-.-.-.&.;.;.;.;.;.;.;.y 8 ;.;.;.;.;.;.z ;.;.n C C A H P U T ;.;.~ ! ( ] }  .+.O.;.",
";.;.;.;.-.-.-.-.-.-.-.-.-.-.-.-.&.-.&.-.&.-.-.-.-.&.;.;.& ;.;.;.;.;.y 8 ;.;.;.;.;.;.z ;.;.m m ;.;.;.;.;.;.;.;.~ ;.;.;.;.;.;.;.;.",
";.;.;.;.;.*.-.-.-.-.-.-.-.-.-.-.;.;.O ;.;.-.-.-.&.;.;.& & O ;.;.;.;.y 8 ;.;.;.;.;.;.z ;.;.n b ;.;.;.;.;.;.;.;.~ ;.;.;.;.;.;.;.;.",
";.;.;.;.;.;.-.-.-.-.-.-.-.-.-.&.;.& & & & ;.-.-.;.;.& & & & & ;.;.;.y 8 ;.;.;.;.;.;.l ;.;.N b ;.;.;.;.;.;.;.;.~ ;.;.;.;.;.;.;.;.",
";.;.;.;.;.;.&.-.-.-.-.-.-.-.-.&.;.& & & & ;.-.;.;.& & & & & & & ;.;.y 0 ;.;.;.;.;.;.l ;.;.m v ;.;.;.;.;.;.;.;.~ ;.;.;.;.;.;.;.;.",
";.;.;.;.;.;.;.*.-.-.-.-.-.-.-.&.;.& & & & O ;.;.O & & & & & & & & ;.y u ;.;.;.;.;.;.l ;.;.m b ;.;.;.;.;.;.;.;.~ ;.;.;.;.;.;.;.;.",
";.;.;.;.;.;.;.;.&.-.-.-.-.-.-.&.;.;.& & & & O & & & & & & & & O ;.;.;.u i q w s d j l ;.;.N m x Z D F K I ;.;.Q ! ^ _ ' [ ..o.;.",
";.;.;.;.;.;.;.;.;.&.-.-.-.-.-.-.-.&.;.;.@ & & & & & & & & & ;.;.;.;.;.;.i a f f k k l ;.;.;.C S G J P Y T ;.;.Q ( ` } | +.@.#.;.",
";.;.;.;.;.;.;.;.;.;.*.-.-.-.-.-.-.&.;.;.O & & & & & & & & O ;.;.;.;.;.;.;.;.;.;.;.;.;.;.;.;.;.;.;.;.;.;.;.;.;.;.;.;.;.;.;.;.;.;.",
";.;.;.;.;.;.;.;.;.;.;.-.-.-.-.-.&.;.;.;.& & & & & & & & & ;.;.;.;.;.;.O O ;.;.;.;.;.;.;.;.;.;.;.;.;.;.;.;.;.;.;.;.;.;.;.;.;.;.;.",
";.;.;.;.;.;.;.;.;.;.;.;.-.-.-.-.;.;.O & & & & & & & & & & O ;.;.;.;.;.& & O ;.;.;.;.;.;.;.;.;.;.;.;.;.;.;.;.;.;.;.;.;.;.;.;.;.;.",
";.;.;.;.;.;.;.;.;.;.;.;.;.-.&.;.;.O & & & & & & & & & & & & ;.;.;.;.& & & & ;.;.;.;.;.;.;.;.;.;.;.;.;.;.;.;.;.;.;.;.;.;.;.;.;.;.",
";.;.;.;.;.;.;.;.;.;.;.;.;.;.;.;.& & & & & & & & & & & & & & & & O & & & & & & ;.;.;.;.;.;.;.;.;.;.;.;.;.;.;.;.;.;.;.;.;.;.;.;.;.",
";.;.;.;.;.;.;.;.;.;.;.;.;.;.;.& & & & & & & & & & & & & & & & & & & & & & & & O ;.;.;.;.;.;.;.;.;.;.;.;.;.;.;.;.;.;.;.;.;.;.;.;.",
";.;.;.;.;.;.;.;.;.;.;.;.;.;.;.;.O & & & & & & & & & & & & & & & & & & & & & &   ;.;.;.;.;.;.;.;.;.;.;.;.;.;.;.;.;.;.;.;.;.;.;.;.",
";.;.;.;.;.;.;.;.;.;.;.;.;.;.;.;.;.O & & & & & & & & & & & & & & & & & & & & ;.;.;.;.;.;.;.;.;.;.;.;.;.;.;.;.;.;.;.;.;.;.;.;.;.;.",
";.;.;.;.;.;.;.;.;.;.;.;.;.;.;.;.;.;.O & & & & & & & & & & & & & & & & & & ;.;.;.;.;.;.;.;.;.;.;.;.;.;.;.;.;.;.;.;.;.;.;.;.;.;.;.",
";.;.;.;.;.;.;.;.;.;.;.;.;.;.;.;.;.;.;.& & & & & & & & & & & & & & & & & ;.;.;.;.;.;.;.;.;.;.;.;.;.;.;.;.;.;.;.;.;.;.;.;.;.;.;.;.",
";.;.;.;.;.;.;.;.;.;.;.;.;.;.;.;.;.;.;.;.& & & & & & & & & & & & & & & ;.;.;.;.;.;.;.;.;.;.;.;.;.;.;.;.;.;.;.;.;.;.;.;.;.;.;.;.;.",
";.;.;.;.;.;.;.;.;.;.;.;.;.;.;.;.;.;.;.;.;.& & & & & & & & & & & & & & O ;.;.;.;.;.;.;.;.;.;.;.;.;.;.;.;.;.;.;.;.;.;.;.;.;.;.;.;.",
";.;.;.;.;.;.;.;.;.;.;.;.;.;.;.;.;.;.;.;.;.;.& & & & & & & & & & & & & & & & ;.;.;.;.;.;.;.;.;.;.;.;.;.;.;.;.;.;.;.;.;.;.;.;.;.;.",
";.;.;.;.;.;.;.;.;.;.;.;.;.;.;.;.;.;.;.;.;.;.;.& & & & & & & & ;.;.O & & & & ;.;.;.;.;.;.;.;.;.;.;.;.;.;.;.;.;.;.;.;.;.;.;.;.;.;.",
";.;.;.;.;.;.;.;.;.;.;.;.;.;.;.;.;.;.;.;.;.;.;.;.& & & & & & ;.;.;.O & & & & & ;.;.;.;.;.;.;.;.;.;.;.;.;.;.;.;.;.;.;.;.;.;.;.;.;.",
";.;.;.;.;.;.;.;.;.;.;.;.;.;.;.;.;.;.;.;.;.;.;.;.O & & & & ;.;.;.;.;.O & & & ;.;.;.;.;.;.;.;.;.;.;.;.;.;.;.;.;.;.;.;.;.;.;.;.;.;.",
";.;.;.;.;.;.;.;.;.;.;.;.;.;.;.;.;.;.;.;.;.;.;.;.;.  & & O ;.;.;.;.;.;.O & ;.;.;.;.;.;.;.;.;.;.;.;.;.;.;.;.;.;.;.;.;.;.;.;.;.;.;.",
";.;.;.;.;.;.;.;.;.;.;.;.;.;.;.;.;.;.;.;.;.;.;.;.;.;.& O ;.;.;.;.;.;.;.;.;.;.;.;.;.;.;.;.;.;.;.;.;.;.;.;.;.;.;.;.;.;.;.;.;.;.;.;.",
";.;.;.;.;.;.;.;.;.;.;.;.;.;.;.;.;.;.;.;.;.;.;.;.;.;.;.;.;.;.;.;.;.;.;.;.;.;.;.;.;.;.;.;.;.;.;.;.;.;.;.;.;.;.;.;.;.;.;.;.;.;.;.;.",
";.;.;.;.;.;.;.;.;.;.;.;.;.;.;.;.;.;.;.;.;.;.;.;.;.;.;.;.;.;.;.;.;.;.;.;.;.;.;.;.;.;.;.;.;.;.;.;.;.;.;.;.;.;.;.;.;.;.;.;.;.;.;.;.",
";.;.;.;.;.;.;.;.;.;.;.;.;.;.;.;.;.;.;.;.;.;.;.;.;.;.;.;.;.;.;.;.;.;.;.;.;.;.;.;.;.;.;.;.;.;.;.;.;.;.;.;.;.;.;.;.;.;.;.;.;.;.;.;.",
";.;.;.;.;.;.;.;.;.;.;.;.;.;.;.;.;.;.;.;.;.;.;.;.;.;.;.;.;.;.;.;.;.;.;.;.;.;.;.;.;.;.;.;.;.;.;.;.;.;.;.;.;.;.;.;.;.;.;.;.;.;.;.;.",
";.;.;.;.;.;.;.;.;.;.;.;.;.;.;.;.;.;.;.;.;.;.;.;.;.;.;.;.;.;.;.;.;.;.;.;.;.;.;.;.;.;.;.;.;.;.;.;.;.;.;.;.;.;.;.;.;.;.;.;.;.;.;.;."
};
